<?xml version="1.0" standalone="no"?>
<!DOCTYPE svg PUBLIC "-//W3C//DTD SVG 20010904//EN"
 "http://www.w3.org/TR/2001/REC-SVG-20010904/DTD/svg10.dtd">
<svg version="1.0" xmlns="http://www.w3.org/2000/svg"
 width="26.000000pt" height="26.000000pt" viewBox="0 0 26.000000 26.000000"
 preserveAspectRatio="xMidYMid meet">
<metadata>
Created by potrace 1.10, written by Peter Selinger 2001-2011
</metadata>
<g transform="translate(0.000000,26.000000) scale(0.100000,-0.100000)"
fill="#000000" stroke="none">
<path d="M78 217 c40 -40 41 -44 25 -60 -16 -16 -20 -15 -60 25 l-43 42 0 -31
c0 -17 6 -33 13 -36 10 -3 10 -9 0 -26 -17 -28 -18 -60 -1 -43 7 7 23 12 37
12 35 0 111 75 111 110 0 14 5 31 12 38 9 9 6 12 -14 12 -15 0 -28 -6 -31 -12
-4 -10 -7 -10 -18 0 -7 6 -27 12 -43 12 l-30 0 42 -43z"/>
<path d="M202 248 c-32 -32 0 -77 36 -52 26 18 27 30 8 50 -18 17 -28 18 -44
2z"/>
<path d="M245 170 c-3 -5 -18 -10 -34 -10 -36 0 -111 -75 -111 -111 0 -14 -5
-30 -12 -37 -9 -9 -7 -12 9 -12 11 0 28 10 37 22 l15 23 20 -22 c10 -13 30
-23 44 -23 23 0 22 2 -19 47 -24 25 -41 50 -38 55 6 9 90 -56 98 -75 2 -7 5 2
5 20 1 23 -5 36 -19 43 -11 6 -20 15 -20 21 0 6 9 13 20 16 13 3 20 14 20 29
0 26 -5 30 -15 14z"/>
<path d="M12 58 c-16 -16 -15 -26 4 -45 21 -21 49 -5 49 28 0 27 -32 38 -53
17z"/>
</g>
</svg>
